<?xml version="1.0" encoding="UTF-8"?>
<svg id="Layer_1" data-name="Layer 1" xmlns="http://www.w3.org/2000/svg" viewBox="0 0 3000 3000">
  <path d="M321.02,711.35c4.22,552.66,6.33,828.99,6.33,828.99,497.82,261.57,746.73,392.35,746.73,392.35,679.22-4.22,1018.84-6.33,1018.84-6.33,493.6-278.44,740.4-417.66,740.4-417.66-8.44-523.13-12.66-784.7-12.66-784.7C2143.71-31.46,1044.49-7.1,321.01,711.36h0Z" fill="#F2EDE4" fill-opacity="0.05" fill-rule="evenodd"/>
  <path d="M339.81,719.17l6.18,809.74,732.66,384.96,1009.23-6.27,726.37-409.75-12.36-766.51c-19.07-21.12-38.67-41.8-58.77-62.04-324.51-326.77-734.76-485.74-1150.28-485.56-415.87.18-837.18,159.71-1183.37,469.91-23.39,20.96-46.62,42.8-69.67,65.51h0ZM308.49,1540.42l-6.39-836.86,5.59-5.55c24.92-24.74,50.51-48.87,76.73-72.37,353.26-316.53,783.5-479.3,1208.44-479.49,425.29-.19,845.07,162.4,1176.96,496.61,21.78,21.93,43.38,44.83,64.77,68.71l4.68,5.22c4.31,267.62,8.63,535.24,12.95,802.86-251.47,141.85-502.96,283.7-754.42,425.57-342.81,2.11-685.63,4.25-1028.44,6.38-253.59-133.26-507.19-266.49-760.79-399.73l-.08-11.36h0Z" fill="#A39D92" fill-opacity="0.6"/>
  <rect x="1079.51" y="672.53" width="995.29" height="719.49" rx="95.94" ry="95.94" fill="#F2EDE4" fill-opacity="0.03"/>
  <path d="M1175.45,653.66h803.41c31.6,0,60.3,12.91,81.1,33.71,20.8,20.8,33.71,49.51,33.71,81.1v527.61c0,31.6-12.91,60.3-33.71,81.1-20.8,20.8-49.51,33.71-81.1,33.71h-803.41c-31.6,0-60.3-12.91-81.1-33.71-20.8-20.8-33.71-49.51-33.71-81.1v-527.61c0-31.6,12.91-60.3,33.71-81.1,20.8-20.8,49.51-33.71,81.1-33.71h0ZM1978.86,691.4h-803.41c-21.17,0-40.44,8.67-54.42,22.65-13.98,13.98-22.65,33.24-22.65,54.42v527.61c0,21.17,8.67,40.44,22.65,54.42,13.98,13.98,33.24,22.65,54.42,22.65h803.41c21.17,0,40.44-8.67,54.42-22.65,13.98-13.98,22.65-33.24,22.65-54.42v-527.61c0-21.17-8.67-40.44-22.65-54.42-13.98-13.98-33.24-22.65-54.42-22.65Z" fill="#A39D92" fill-opacity="0.45"/>
</svg>