<?xml version="1.0" encoding="UTF-8"?>
<svg id="Layer_1" data-name="Layer 1" xmlns="http://www.w3.org/2000/svg" xmlns:xlink="http://www.w3.org/1999/xlink" viewBox="0 0 3000 3000">
  <defs>
    <clipPath id="clippath">
      <ellipse cx="1330.59" cy="1330.09" rx="413.55" ry="411.35" fill="#6F6B63"/>
    </clipPath>
  </defs>
  <path d="M1400.31,1027.55c4.28-21.49,78.64,14.3,89.91,20.4,10.5,5.69,77.45,46.62,60.62,61.61-10.63,9.46-27.5-4.29-45.04-18.88-24.85-20.67-32.44-23.97-63.02-34.08-22.97-7.6-45.16-15.55-42.48-29.05h0Z" fill="#F2EDE4" fill-opacity="0.85"/>
  <ellipse cx="1572.97" cy="1130.74" rx="11.51" ry="14.11" transform="translate(-305.7 1603.4) rotate(-49.83)" fill="#F2EDE4" fill-opacity="0.85"/>
  <g>
    <g>
      <ellipse cx="1330.59" cy="1330.09" rx="413.55" ry="411.35" fill="#6F6B63"/>
      <g clip-path="url(#clippath)">
        <ellipse cx="1371.39" cy="1216.36" rx="413.55" ry="411.35" fill="#928C82"/>
        <ellipse cx="1425.13" cy="1187.25" rx="177.54" ry="246.72" transform="translate(-246.7 1990.71) rotate(-65.47)" fill="#B8B2A7"/>
      </g>
    </g>
    <ellipse cx="1330.59" cy="1330.09" rx="413.55" ry="411.35" fill="none"/>
    <path fill="#33302A" d="M1330.59,909.4c116.74,0,222.46,47.09,298.99,123.21,76.55,76.14,123.9,181.31,123.9,297.47s-47.35,221.32-123.9,297.47c-76.54,76.13-182.25,123.21-298.99,123.21s-222.46-47.09-298.99-123.21c-76.55-76.14-123.9-181.31-123.9-297.47s47.35-221.32,123.9-297.47c76.54-76.13,182.25-123.21,298.99-123.21h0ZM1616.46,1045.82c-73.14-72.75-174.21-117.75-285.87-117.75s-212.73,45-285.87,117.75c-73.13,72.74-118.36,173.24-118.36,284.26s45.23,211.53,118.36,284.26c73.14,72.75,174.21,117.75,285.87,117.75s212.73-45,285.87-117.75c73.13-72.74,118.36-173.24,118.36-284.26s-45.23-211.53-118.36-284.26Z"/>
    <path fill="#33302A" d="M1082.49,1000.3c81.87,95.2,135,203.6,159.37,325.2,24.31,121.25,19.97,255.59-13.01,403l-18.16-4.01c32.39-144.77,36.67-276.56,12.86-395.35-23.75-118.45-75.48-224.03-155.22-316.74l14.15-12.11h0Z"/>
    <path fill="#33302A" d="M1254.49,920.17c92.17,87.21,157.09,197.46,194.77,330.75,37.52,132.74,48,288.37,31.42,466.88l-18.52-1.68c16.35-176.17,6.08-329.56-30.84-460.17-36.76-130.05-99.96-237.48-189.59-322.29l12.76-13.49h0Z"/>
    <path fill="#33302A" d="M1596.71,1011.22c-24.86,69-25.94,138.83-3.23,209.49,22.91,71.27,69.99,143.57,141.26,216.87l-13.34,12.98c-73.29-75.39-121.84-150.11-145.63-224.17-23.99-74.67-22.84-148.48,3.45-221.45l17.5,6.27h0Z"/>
    <path fill="#33302A" d="M945.47,1499.69c13.08-62.79,36.34-118.05,67.28-165.66,57.97-89.21,142.83-151.46,238.29-186.15,95.25-34.62,201.11-41.8,301.28-20.93,62.95,13.11,123.7,37.31,178.21,72.74l-10.14,15.61c-52.52-34.13-111.11-57.45-171.87-70.11-96.84-20.18-199.12-13.25-291.15,20.2-91.82,33.37-173.39,93.17-229.03,178.79-29.71,45.72-52.06,98.86-64.65,159.32l-18.23-3.79h0Z"/>
  </g>
</svg>