<?xml version="1.0" encoding="UTF-8"?>
<svg id="Layer_1" data-name="Layer 1" xmlns="http://www.w3.org/2000/svg" viewBox="0 0 3000 3000">
  <path d="M2088.98,952.57c-104.56-2.41-207.49-4.4-308.81-5.99.15,54.16-.22,110.71-1.13,169.64-.97,63.52-2.53,129.55-4.68,198.09l94.58,162.37,2.34-3.62,158.65-181.73,59.06-338.77h0ZM1622.97,2216.81l101.1-151.17-99.72-155.25-100.59,155.61,99.2,150.81h0ZM1742.34,2038.32l106.27-158.88-102.24-157.8-104.04,160.96,100.03,155.73h0ZM1865.87,1850.73l92.48-160.69-90.8-155.89-103.28,159.77,101.6,156.8h0ZM1946.24,1771.34l-62,107.74,34.05,52.56,27.94-160.29h0ZM1866.42,1906.92l-106.34,159,106.03,165.07,45.23-259.42-2.12,1.38-42.79-66.04h0ZM1741.8,2093.24l-106.44,159.14-12.5-8.37-12.56,8.26-104.38-158.68-125.43,194.05-115.79-180.73-135.56,208.66c-80.39-467.32-160.77-934.63-241.17-1401.95,170.42-1.68,311.82-13.74,534.12-22.35,226.83-8.78,519.48,3.92,699.61,49.2l-239.16,1371.86-140.73-219.09h-.01ZM1758.47,1346.89l-109.68,168.82,97.57,150.58,104.23-161.25-92.12-158.15h0ZM1885.88,1505.78l82.09,140.93,51.98-298.2-124.85,143.01-9.22,14.27h0ZM1276.45,1312.97l105.04,163.54,108.09-160.37,1.68-373.01-4.87-.04c-79.83-.63-131.03-.94-208.76-1.03-9.1,123.31-3.51,247.36-1.19,370.89h0ZM1399.24,1504.15l109.96,171.19,103.72-159.64-108.54-167.52-105.13,155.97h0ZM1527.04,1703.12l97.45,151.72,103.96-160.83-97.62-150.65-103.8,159.77h0ZM1606.53,1882.63l-97.49-151.79-102.22,157.35,98.92,150.39,100.8-155.94ZM1491.19,1703.05l-110.28-171.7-105.68,156.79,113.52,172.58,102.44-157.67h0ZM1363.16,1503.72l-101.88-158.62-106.55,159.83,102.54,155.9,105.89-157.11h0ZM1487.9,2066.16l-98.97-150.46-106.2,163.46,97.94,152.87,107.23-165.88h0ZM1055.25,1697.89l78.77,145.82,105.04-155.84-100.71-153.1-83.1,163.14h0ZM1150.63,1873l114.27,178.35,105.96-163.1-113.85-173.09-106.38,157.84h0ZM1246.89,2079.09l-114.6-178.87-35.05,52,48.58,282.43,101.07-155.56ZM1115,1871.9l-46.33-85.77,21.17,123.1,25.16-37.33ZM1519.66,1316.42l111.21,171.63,113.4-174.55c2.17-68.93,3.74-134.81,4.69-197.64.9-59.05,1.27-115.63,1.12-169.74-77.2-1.14-153.45-2.05-228.75-2.72l-1.68,373.02h0ZM1045.38,1650.77l73.21-143.72-121.83-138.91,48.62,282.64h0ZM1134.98,1480.11l111.38-167.07c-1.88-100.43-14.92-274.24,1.05-371.01-110.01-.11-217.93.33-323.73,1.3l63.31,368.03,147.99,168.74h0Z" fill="#F2EDE4" fill-opacity="0.38"/>
</svg>