<?xml version="1.0" encoding="UTF-8"?>
<svg id="Layer_1" data-name="Layer 1" xmlns="http://www.w3.org/2000/svg" viewBox="0 0 3000 3000">
  <path d="M813.6,1311.73c245.1,0,488.59-29.89,735.47-27.61,228.64,2.12,467.04,19.11,690.29,27.61,28.76,1.09,52.33,23.55,52.33,52.33v4.19c0,28.78-23.59,50.83-52.33,52.33l-508.8,26.6c-1.41.07-2.82.14-4.23.22v312.93l-407.47-3.79v-310.85c-3.52-.17-7.05-.34-10.6-.52l-494.67-24.59c-28.74-1.43-52.33-23.55-52.33-52.33v-4.19c0-28.78,23.55-52.33,52.33-52.33h0Z" fill="#F2EDE4" fill-opacity="0.8" fill-rule="evenodd"/>
</svg>